<svg width="380" height="380" viewBox="0 0 380 380" fill="none" xmlns="http://www.w3.org/2000/svg">
<g clip-path="url(#clip0_703_736)">
<path opacity="0.1" d="M190 379.998C294.935 379.998 380.001 294.932 380.001 189.999C380.001 85.0654 294.935 0 190 0C85.066 0 0 85.0654 0 189.999C0 294.932 85.066 379.998 190 379.998Z" fill="#367CFF"/>
<path d="M107.797 133.008C108.484 132.237 109.315 131.61 110.245 131.161C111.174 130.713 112.183 130.452 113.213 130.393C114.244 130.334 115.275 130.478 116.25 130.818C117.224 131.158 118.122 131.687 118.892 132.374L143.972 154.742L133.51 166.472L108.43 144.104C107.66 143.417 107.033 142.585 106.584 141.655C106.135 140.726 105.874 139.717 105.815 138.687C105.756 137.656 105.901 136.625 106.241 135.65C106.581 134.676 107.11 133.778 107.797 133.008Z" fill="white"/>
<path d="M133.571 167.566L107.914 144.682C107.068 143.927 106.378 143.013 105.885 141.992C105.392 140.971 105.105 139.862 105.04 138.73C104.976 137.598 105.135 136.465 105.508 135.394C105.882 134.323 106.462 133.337 107.217 132.49C107.972 131.644 108.886 130.955 109.907 130.462C110.928 129.969 112.036 129.682 113.168 129.617C114.301 129.552 115.434 129.711 116.505 130.085C117.576 130.458 118.562 131.039 119.409 131.794L145.068 154.679L133.571 167.566ZM113.668 131.155C113.531 131.155 113.393 131.158 113.255 131.166C111.856 131.246 110.513 131.74 109.395 132.583C108.276 133.427 107.433 134.583 106.972 135.906C106.511 137.229 106.453 138.659 106.804 140.015C107.156 141.371 107.901 142.592 108.947 143.524L133.447 165.376L142.876 154.805L118.376 132.953C117.083 131.793 115.407 131.152 113.67 131.155H113.668Z" fill="#292A2E"/>
<path d="M246.486 166.471L236.025 154.742L261.104 132.373C262.66 130.986 264.703 130.273 266.783 130.392C268.864 130.511 270.813 131.452 272.2 133.007C273.587 134.563 274.3 136.605 274.181 138.686C274.062 140.767 273.121 142.715 271.566 144.103L246.486 166.471Z" fill="white"/>
<path d="M246.426 167.566L234.932 154.679L260.591 131.793C262.3 130.269 264.545 129.486 266.831 129.617C269.117 129.748 271.258 130.781 272.782 132.49C274.307 134.199 275.09 136.444 274.959 138.73C274.828 141.017 273.795 143.157 272.086 144.682L246.426 167.566ZM237.123 154.804L246.552 165.375L271.053 143.524C271.747 142.905 272.312 142.155 272.716 141.318C273.121 140.48 273.356 139.571 273.409 138.643C273.462 137.714 273.332 136.784 273.026 135.906C272.719 135.028 272.243 134.218 271.624 133.524C271.005 132.83 270.255 132.265 269.417 131.861C268.58 131.456 267.671 131.221 266.742 131.168C265.814 131.115 264.884 131.245 264.005 131.551C263.127 131.858 262.318 132.334 261.624 132.953L237.123 154.804Z" fill="#292A2E"/>
<path d="M256.932 181.021C262.526 205.795 270.185 221.733 266.372 230.887C264.367 235.698 260.252 239.732 253.441 239.732C242.824 239.732 242.824 227.211 232.206 227.211C221.588 227.211 221.589 239.732 210.972 239.732C200.356 239.732 200.357 227.211 189.741 227.211C179.125 227.211 179.125 239.732 168.509 239.732C157.892 239.732 157.893 227.211 147.277 227.211C136.662 227.211 136.663 239.732 126.048 239.732C119.746 239.732 116.183 236.021 113.924 231.731C108.494 221.427 121.149 198.751 126.048 178.755C131.462 156.659 131.006 129.137 131.732 112.538C133.133 80.5275 157.704 54.5225 189.748 54.5225C221.792 54.5225 245.43 80.5819 247.764 112.538C249.022 129.766 251.811 158.343 256.932 181.021Z" fill="white"/>
<path d="M253.441 240.515C247.769 240.515 244.952 237.192 242.226 233.976C239.616 230.898 237.152 227.992 232.205 227.992C227.259 227.992 224.798 230.898 222.186 233.976C219.46 237.189 216.643 240.515 210.972 240.515C205.302 240.515 202.485 237.192 199.76 233.976C197.15 230.898 194.686 227.992 189.741 227.992C184.796 227.992 182.333 230.898 179.722 233.976C176.997 237.189 174.179 240.515 168.508 240.515C162.837 240.515 160.019 237.192 157.299 233.979C154.689 230.902 152.225 227.995 147.28 227.995C142.335 227.995 139.872 230.902 137.262 233.979C134.538 237.193 131.721 240.519 126.051 240.519C120.411 240.519 116.219 237.765 113.234 232.099C109.448 224.915 113.995 212.212 118.809 198.765C121.2 192.085 123.671 185.179 125.291 178.574C129.621 160.902 130.169 140.138 130.608 123.453C130.712 119.506 130.81 115.778 130.956 112.509C131.65 96.6636 137.95 81.9164 148.698 70.9826C154.04 65.5085 160.426 61.1622 167.478 58.2013C174.53 55.2404 182.105 53.7251 189.754 53.7452C197.353 53.7272 204.877 55.2472 211.873 58.2136C218.869 61.1801 225.193 65.5316 230.463 71.0063C240.963 81.8163 247.386 96.5484 248.55 112.486C249.673 127.853 252.353 157.169 257.701 180.854C259.515 188.887 261.545 195.983 263.336 202.244C267.076 215.317 269.779 224.762 267.098 231.193C265.642 234.674 261.939 240.515 253.441 240.515ZM232.205 226.429C237.877 226.429 240.695 229.752 243.42 232.968C246.03 236.046 248.495 238.952 253.441 238.952C261.031 238.952 264.347 233.712 265.649 230.587C268.118 224.663 265.475 215.439 261.825 202.671C260.031 196.39 257.992 189.273 256.169 181.196C250.798 157.411 248.109 128.008 246.984 112.598C244.598 79.9366 219.992 55.3072 189.747 55.3072C159.059 55.3072 133.919 80.4615 132.511 112.574C132.368 115.83 132.27 119.552 132.163 123.491C131.745 139.367 131.172 161.108 126.802 178.943C125.165 185.627 122.678 192.573 120.274 199.29C115.579 212.404 111.145 224.793 114.61 231.369C117.299 236.471 121.038 238.95 126.042 238.95C130.987 238.95 133.45 236.044 136.06 232.966C138.784 229.752 141.601 226.427 147.271 226.427C152.941 226.427 155.76 229.75 158.484 232.966C161.093 236.044 163.557 238.95 168.503 238.95C173.448 238.95 175.913 236.043 178.522 232.966C181.247 229.752 184.065 226.427 189.735 226.427C195.405 226.427 198.223 229.75 200.947 232.966C203.557 236.044 206.021 238.95 210.966 238.95C215.912 238.95 218.377 236.043 220.987 232.966C223.717 229.754 226.534 226.429 232.205 226.429Z" fill="#292A2E"/>
<path d="M167.947 116.281C171.499 116.281 174.378 113.402 174.378 109.85C174.378 106.299 171.499 103.42 167.947 103.42C164.396 103.42 161.517 106.299 161.517 109.85C161.517 113.402 164.396 116.281 167.947 116.281Z" fill="#292A2E"/>
<path d="M212.045 116.281C215.597 116.281 218.476 113.402 218.476 109.85C218.476 106.299 215.597 103.42 212.045 103.42C208.493 103.42 205.614 106.299 205.614 109.85C205.614 113.402 208.493 116.281 212.045 116.281Z" fill="#292A2E"/>
<path d="M201.514 127.207C201.885 127.206 202.252 127.288 202.588 127.447C202.923 127.605 203.219 127.837 203.454 128.124C203.689 128.412 203.857 128.748 203.945 129.108C204.034 129.469 204.041 129.844 203.966 130.208C202.588 136.655 196.858 140.708 189.998 140.708C183.138 140.708 177.408 136.657 176.03 130.208C175.955 129.844 175.962 129.468 176.051 129.108C176.139 128.747 176.307 128.411 176.542 128.124C176.777 127.836 177.073 127.605 177.409 127.446C177.744 127.288 178.111 127.206 178.482 127.207H201.514Z" fill="white"/>
<path d="M189.997 141.491C182.607 141.491 176.686 137.022 175.264 130.371C175.163 129.897 175.169 129.407 175.282 128.936C175.396 128.466 175.613 128.026 175.919 127.651C176.227 127.268 176.618 126.959 177.061 126.747C177.505 126.536 177.99 126.426 178.482 126.427H201.515C202.007 126.426 202.492 126.536 202.936 126.748C203.379 126.959 203.77 127.268 204.078 127.651C204.383 128.026 204.601 128.466 204.714 128.936C204.828 129.407 204.834 129.897 204.733 130.371C203.308 137.022 197.386 141.491 189.997 141.491ZM178.481 127.989C178.222 127.989 177.967 128.047 177.734 128.158C177.501 128.27 177.296 128.432 177.134 128.633C176.976 128.828 176.863 129.056 176.804 129.3C176.745 129.544 176.741 129.798 176.794 130.044C178.057 135.954 183.363 139.926 189.996 139.926C196.63 139.926 201.935 135.954 203.199 130.044C203.252 129.798 203.248 129.544 203.189 129.3C203.13 129.055 203.016 128.828 202.857 128.633C202.695 128.432 202.491 128.27 202.258 128.158C202.025 128.047 201.77 127.989 201.512 127.989H178.481Z" fill="#292A2E"/>
<path d="M341.162 305.124C306.45 350.635 251.656 380 190.003 380C128.351 380 73.557 350.635 38.8447 305.124C78.4704 290.216 131.598 281.101 190.003 281.101C248.409 281.101 301.534 290.216 341.162 305.124Z" fill="#367CFF"/>
<path d="M357.109 99.5091L259.598 99.0924C259.598 82.807 268.771 79.6009 278.522 76.9561C288.274 74.3113 292.661 56.4113 309.606 55.3928C319.613 54.7909 324.861 57.3662 329.207 60.6823C329.213 60.6881 329.213 60.6939 329.219 60.6939C340.108 72.4102 349.478 85.4512 357.109 99.5091Z" fill="white"/>
<path d="M78.9578 220.515L2.49584 220.845C1.18979 212.862 0.397234 204.803 0.123047 196.718C16.8715 194.345 15.1585 181.034 35.1594 182.244C49.9981 183.135 53.8524 198.813 62.3887 201.128C70.925 203.443 78.9578 206.258 78.9578 220.515Z" fill="white"/>
</g>
<defs>
<clipPath id="clip0_703_736">
<rect width="380" height="380" fill="white"/>
</clipPath>
</defs>
</svg>
