<svg width="100" height="100" viewBox="0 0 100 100" fill="none" xmlns="http://www.w3.org/2000/svg">
<circle cx="50" cy="50" r="50" fill="#2563EB"/>
<path d="M38.3729 39.1818H42.9858V53.3509C42.9858 54.9418 42.6058 56.3338 41.8459 57.527C41.093 58.7202 40.0384 59.6506 38.6818 60.3182C37.3253 60.9787 35.745 61.3089 33.9411 61.3089C32.13 61.3089 30.5462 60.9787 29.1896 60.3182C27.8331 59.6506 26.7784 58.7202 26.0256 57.527C25.2727 56.3338 24.8963 54.9418 24.8963 53.3509V39.1818H29.5092V52.9567C29.5092 53.7876 29.6903 54.5263 30.0526 55.1726C30.4219 55.8189 30.9403 56.3267 31.608 56.696C32.2756 57.0653 33.0533 57.25 33.9411 57.25C34.8359 57.25 35.6136 57.0653 36.2741 56.696C36.9418 56.3267 37.4567 55.8189 37.8189 55.1726C38.1882 54.5263 38.3729 53.7876 38.3729 52.9567V39.1818ZM65.0304 39.1818V61H61.046L51.5538 47.2678H51.394V61H46.7811V39.1818H50.8294L60.247 52.9034H60.4387V39.1818H65.0304ZM73.4545 39.1818V61H68.8416V39.1818H73.4545Z" fill="white"/>
<path d="M28.8409 70.8182V76H27.142V64.3636H28.8182V68.6932H28.9261C29.1307 68.2235 29.4432 67.8504 29.8636 67.5739C30.2841 67.2973 30.8333 67.1591 31.5114 67.1591C32.1098 67.1591 32.6326 67.2822 33.0795 67.5284C33.5303 67.7746 33.8788 68.142 34.125 68.6307C34.375 69.1155 34.5 69.7216 34.5 70.4489V76H32.8011V70.6534C32.8011 70.0133 32.6364 69.517 32.3068 69.1648C31.9773 68.8087 31.5189 68.6307 30.9318 68.6307C30.5303 68.6307 30.1705 68.7159 29.8523 68.8864C29.5379 69.0568 29.2898 69.3068 29.108 69.6364C28.9299 69.9621 28.8409 70.3561 28.8409 70.8182ZM40.4432 76.1761C39.625 76.1761 38.911 75.9886 38.3011 75.6136C37.6913 75.2386 37.2178 74.714 36.8807 74.0398C36.5436 73.3655 36.375 72.5777 36.375 71.6761C36.375 70.7708 36.5436 69.9792 36.8807 69.3011C37.2178 68.6231 37.6913 68.0966 38.3011 67.7216C38.911 67.3466 39.625 67.1591 40.4432 67.1591C41.2614 67.1591 41.9754 67.3466 42.5852 67.7216C43.1951 68.0966 43.6686 68.6231 44.0057 69.3011C44.3428 69.9792 44.5114 70.7708 44.5114 71.6761C44.5114 72.5777 44.3428 73.3655 44.0057 74.0398C43.6686 74.714 43.1951 75.2386 42.5852 75.6136C41.9754 75.9886 41.2614 76.1761 40.4432 76.1761ZM40.4489 74.75C40.9792 74.75 41.4186 74.6098 41.767 74.3295C42.1155 74.0492 42.3731 73.6761 42.5398 73.2102C42.7102 72.7443 42.7955 72.2311 42.7955 71.6705C42.7955 71.1136 42.7102 70.6023 42.5398 70.1364C42.3731 69.6667 42.1155 69.2898 41.767 69.0057C41.4186 68.7216 40.9792 68.5795 40.4489 68.5795C39.9148 68.5795 39.4716 68.7216 39.1193 69.0057C38.7708 69.2898 38.5114 69.6667 38.3409 70.1364C38.1742 70.6023 38.0909 71.1136 38.0909 71.6705C38.0909 72.2311 38.1742 72.7443 38.3409 73.2102C38.5114 73.6761 38.7708 74.0492 39.1193 74.3295C39.4716 74.6098 39.9148 74.75 40.4489 74.75ZM52.9474 69.4034L51.4077 69.6761C51.3433 69.4792 51.241 69.2917 51.1009 69.1136C50.9645 68.9356 50.7789 68.7898 50.544 68.6761C50.3092 68.5625 50.0156 68.5057 49.6634 68.5057C49.1823 68.5057 48.7808 68.6136 48.4588 68.8295C48.1368 69.0417 47.9759 69.3163 47.9759 69.6534C47.9759 69.9451 48.0838 70.1799 48.2997 70.358C48.5156 70.536 48.8641 70.6818 49.3452 70.7955L50.7315 71.1136C51.5346 71.2992 52.133 71.5852 52.527 71.9716C52.9209 72.358 53.1179 72.8598 53.1179 73.4773C53.1179 74 52.9664 74.4659 52.6634 74.875C52.3641 75.2803 51.9455 75.5985 51.4077 75.8295C50.8736 76.0606 50.2543 76.1761 49.5497 76.1761C48.5724 76.1761 47.7751 75.9678 47.1577 75.5511C46.5402 75.1307 46.1615 74.5341 46.0213 73.7614L47.6634 73.5114C47.7656 73.9394 47.9759 74.2633 48.294 74.483C48.6122 74.6989 49.027 74.8068 49.5384 74.8068C50.0952 74.8068 50.5402 74.6913 50.8736 74.4602C51.2069 74.2254 51.3736 73.9394 51.3736 73.6023C51.3736 73.3295 51.2713 73.1004 51.0668 72.9148C50.866 72.7292 50.5573 72.589 50.1406 72.4943L48.6634 72.1705C47.849 71.9848 47.2467 71.6894 46.8565 71.2841C46.4702 70.8788 46.277 70.3655 46.277 69.7443C46.277 69.2292 46.4209 68.7784 46.7088 68.392C46.9967 68.0057 47.3944 67.7045 47.902 67.4886C48.4096 67.2689 48.991 67.1591 49.6463 67.1591C50.5895 67.1591 51.3319 67.3636 51.8736 67.7727C52.4152 68.178 52.7732 68.7216 52.9474 69.4034ZM59.0597 67.2727V68.6364H54.2926V67.2727H59.0597ZM55.571 65.1818H57.2699V73.4375C57.2699 73.767 57.3191 74.0152 57.4176 74.1818C57.5161 74.3447 57.643 74.4564 57.7983 74.517C57.9574 74.5739 58.1297 74.6023 58.3153 74.6023C58.4517 74.6023 58.571 74.5928 58.6733 74.5739C58.7756 74.5549 58.8551 74.5398 58.9119 74.5284L59.2188 75.9318C59.1203 75.9697 58.9801 76.0076 58.7983 76.0455C58.6165 76.0871 58.3892 76.1098 58.1165 76.1136C57.6695 76.1212 57.2528 76.0417 56.8665 75.875C56.4801 75.7083 56.1676 75.4508 55.929 75.1023C55.6903 74.7538 55.571 74.3163 55.571 73.7898V65.1818ZM64.6065 76.1761C63.7467 76.1761 63.0062 75.9924 62.3849 75.625C61.7675 75.2538 61.2902 74.733 60.9531 74.0625C60.6198 73.3883 60.4531 72.5985 60.4531 71.6932C60.4531 70.7992 60.6198 70.0114 60.9531 69.3295C61.2902 68.6477 61.7599 68.1155 62.3622 67.733C62.9683 67.3504 63.6766 67.1591 64.4872 67.1591C64.9796 67.1591 65.4569 67.2405 65.919 67.4034C66.3812 67.5663 66.7959 67.822 67.1634 68.1705C67.5308 68.5189 67.8205 68.9716 68.0327 69.5284C68.2448 70.0814 68.3509 70.7538 68.3509 71.5455V72.1477H61.4134V70.875H66.6861C66.6861 70.428 66.5952 70.0322 66.4134 69.6875C66.2315 69.339 65.9759 69.0644 65.6463 68.8636C65.3205 68.6629 64.938 68.5625 64.4986 68.5625C64.0213 68.5625 63.6046 68.6799 63.2486 68.9148C62.8963 69.1458 62.6236 69.4489 62.4304 69.8239C62.241 70.1951 62.1463 70.5985 62.1463 71.0341V72.0284C62.1463 72.6117 62.2486 73.108 62.4531 73.517C62.6615 73.9261 62.9512 74.2386 63.3224 74.4545C63.6937 74.6667 64.1274 74.7727 64.6236 74.7727C64.9455 74.7727 65.2391 74.7273 65.5043 74.6364C65.7694 74.5417 65.9986 74.4015 66.1918 74.2159C66.3849 74.0303 66.5327 73.8011 66.6349 73.5284L68.2429 73.8182C68.1141 74.2917 67.883 74.7064 67.5497 75.0625C67.2202 75.4148 66.8054 75.6894 66.3054 75.8864C65.8092 76.0795 65.2429 76.1761 64.6065 76.1761ZM71.9347 64.3636V76H70.2358V64.3636H71.9347Z" fill="white"/>
<path d="M49.5 13L75.0477 35.5H23.9523L49.5 13Z" fill="white"/>
</svg>
