<svg width="18" height="18" viewBox="0 0 18 18" fill="none" xmlns="http://www.w3.org/2000/svg">
<path fill-rule="evenodd" clip-rule="evenodd" d="M2.90238 2.9025C-0.0786247 5.8835 -0.0786247 10.7167 2.90238 13.6977C5.88338 16.6787 10.7165 16.6787 13.6975 13.6977C16.6785 10.7167 16.6785 5.8835 13.6975 2.9025C10.7165 -0.0785025 5.88338 -0.0785025 2.90238 2.9025ZM4.08089 4.08101C6.41102 1.75088 10.1889 1.75088 12.519 4.08101C14.8492 6.41114 14.8492 10.189 12.519 12.5192C10.1889 14.8493 6.41102 14.8493 4.08089 12.5192C1.75076 10.189 1.75076 6.41114 4.08089 4.08101Z" fill="#797A7C"/>
<path d="M17.4119 15.9021L13.9707 12.4609C13.185 11.6752 12.0065 12.8538 12.7922 13.6394L16.2334 17.0807C17.0191 17.8663 18.1976 16.6878 17.4119 15.9021Z" fill="#797A7C"/>
</svg>
