<svg width="24" height="24" viewBox="0 0 24 24" fill="none" xmlns="http://www.w3.org/2000/svg">
<g clip-path="url(#clip0_241_304)">
<path d="M3 12.3333L-1 10L11 3L23 10V18.5H21V11.1667L19 12.3333V19.0113L18.7774 19.2864C16.9457 21.5499 14.1418 23 11 23C7.85817 23 5.05429 21.5499 3.22263 19.2864L3 19.0113V12.3333ZM5 13.5V18.2917C6.46721 19.954 8.61112 21 11 21C13.3889 21 15.5328 19.954 17 18.2917V13.5L11 17L5 13.5ZM2.96927 10L11 14.6846L19.0307 10L11 5.31541L2.96927 10Z" fill="white"/>
</g>
<defs>
<clipPath id="clip0_241_304">
<rect width="24" height="24" fill="white"/>
</clipPath>
</defs>
</svg>
